<svg width="37" height="16" viewBox="0 0 37 16" fill="none" xmlns="http://www.w3.org/2000/svg">
<rect width="37" height="16" rx="6" fill="#CF3E3B"/>
<path d="M6.29785 9.92969V8.70898H8.91992V9.92969H6.29785ZM14.635 6.45801C14.635 6.90397 14.4999 7.2832 14.2297 7.5957C13.9595 7.9082 13.5803 8.12305 13.092 8.24023V8.26953C13.6682 8.34115 14.1044 8.51693 14.4006 8.79688C14.6968 9.07357 14.8449 9.44792 14.8449 9.91992C14.8449 10.6068 14.5959 11.1423 14.0979 11.5264C13.5998 11.9072 12.8885 12.0977 11.9641 12.0977C11.1893 12.0977 10.5025 11.9691 9.90352 11.7119V10.4277C10.1802 10.5677 10.4846 10.6816 10.8166 10.7695C11.1486 10.8574 11.4774 10.9014 11.8029 10.9014C12.301 10.9014 12.6688 10.8167 12.9064 10.6475C13.1441 10.4782 13.2629 10.2064 13.2629 9.83203C13.2629 9.49674 13.1262 9.25911 12.8527 9.11914C12.5793 8.97917 12.1431 8.90918 11.5441 8.90918H11.0021V7.75195H11.5539C12.1073 7.75195 12.5109 7.68034 12.7648 7.53711C13.022 7.39062 13.1506 7.1416 13.1506 6.79004C13.1506 6.24967 12.812 5.97949 12.135 5.97949C11.9006 5.97949 11.6613 6.01855 11.4172 6.09668C11.1763 6.1748 10.9077 6.3099 10.6115 6.50195L9.91328 5.46191C10.5643 4.99316 11.3407 4.75879 12.2424 4.75879C12.9813 4.75879 13.564 4.90853 13.9904 5.20801C14.4201 5.50749 14.635 5.92415 14.635 6.45801ZM20.8871 8.43066C20.8871 9.67741 20.682 10.6003 20.2719 11.1992C19.865 11.7982 19.2367 12.0977 18.3871 12.0977C17.5635 12.0977 16.9418 11.7884 16.5219 11.1699C16.1052 10.5514 15.8969 9.63835 15.8969 8.43066C15.8969 7.1709 16.1003 6.24316 16.5072 5.64746C16.9141 5.0485 17.5408 4.74902 18.3871 4.74902C19.2107 4.74902 19.8324 5.06152 20.2523 5.68652C20.6755 6.31152 20.8871 7.22624 20.8871 8.43066ZM17.3959 8.43066C17.3959 9.30632 17.4708 9.93457 17.6205 10.3154C17.7735 10.693 18.029 10.8818 18.3871 10.8818C18.7387 10.8818 18.9926 10.6898 19.1488 10.3057C19.3051 9.92155 19.3832 9.29655 19.3832 8.43066C19.3832 7.55501 19.3035 6.92676 19.1439 6.5459C18.9877 6.16178 18.7354 5.96973 18.3871 5.96973C18.0323 5.96973 17.7784 6.16178 17.6254 6.5459C17.4724 6.92676 17.3959 7.55501 17.3959 8.43066ZM23.0865 7C23.0865 7.41341 23.1223 7.72266 23.1939 7.92773C23.2688 8.12956 23.3876 8.23047 23.5504 8.23047C23.8629 8.23047 24.0191 7.82031 24.0191 7C24.0191 6.1862 23.8629 5.7793 23.5504 5.7793C23.3876 5.7793 23.2688 5.88021 23.1939 6.08203C23.1223 6.2806 23.0865 6.58659 23.0865 7ZM25.2496 6.99023C25.2496 7.73893 25.1048 8.30208 24.815 8.67969C24.5253 9.05404 24.1005 9.24121 23.5406 9.24121C23.0035 9.24121 22.5885 9.04915 22.2955 8.66504C22.0025 8.27767 21.8561 7.7194 21.8561 6.99023C21.8561 5.5026 22.4176 4.75879 23.5406 4.75879C24.0908 4.75879 24.5123 4.95247 24.8053 5.33984C25.1015 5.72396 25.2496 6.27409 25.2496 6.99023ZM28.609 4.86133L24.649 12H23.4771L27.4371 4.86133H28.609ZM28.0865 9.85156C28.0865 10.265 28.1223 10.5742 28.1939 10.7793C28.2688 10.9811 28.3876 11.082 28.5504 11.082C28.8629 11.082 29.0191 10.6719 29.0191 9.85156C29.0191 9.03776 28.8629 8.63086 28.5504 8.63086C28.3876 8.63086 28.2688 8.73177 28.1939 8.93359C28.1223 9.13216 28.0865 9.43815 28.0865 9.85156ZM30.2496 9.8418C30.2496 10.5872 30.1048 11.1488 29.815 11.5264C29.5253 11.9007 29.1005 12.0879 28.5406 12.0879C28.0035 12.0879 27.5885 11.8958 27.2955 11.5117C27.0025 11.1243 26.8561 10.5677 26.8561 9.8418C26.8561 8.35417 27.4176 7.61035 28.5406 7.61035C29.0908 7.61035 29.5123 7.80404 29.8053 8.19141C30.1015 8.57552 30.2496 9.12565 30.2496 9.8418Z" fill="white"/>
</svg>
