<?xml version="1.0" encoding="utf-8"?><svg viewBox="0 0 48 48" xmlns="http://www.w3.org/2000/svg" xmlns:xlink="http://www.w3.org/1999/xlink"><style>:root>svg{display:none}:root>svg:target{display:block}</style><svg viewBox="0 0 33 32" id="facebook" xmlns="http://www.w3.org/2000/svg"><g clip-path="url(#aclip0_20_50)"><path d="M21.65 5.313h2.901V.225C24.051.156 22.33 0 20.325 0c-4.183 0-7.048 2.65-7.048 7.519V12H8.66v5.688h4.616V32h5.659V17.69h4.429L24.068 12h-5.133V8.083c0-1.644.44-2.77 2.715-2.77z"/></g><defs><clipPath id="aclip0_20_50"><path transform="translate(.469)" d="M0 0h31.778v32H0z"/></clipPath></defs></svg><svg viewBox="0 0 32 32" id="icon-card" xmlns="http://www.w3.org/2000/svg"><rect width="32" height="32" rx="3"/><path d="M23.899 10.02a.462.462 0 00-.36-.174H11.254l-.344-1.488a.462.462 0 00-.45-.358h-2a.462.462 0 000 .923h1.633l2.332 10.104c.048.21.235.358.45.358h9.247a.461.461 0 100-.923h-8.88l-.355-1.539h9.266c.216 0 .403-.15.45-.36l1.385-6.154a.462.462 0 00-.09-.39zM21.785 16h-9.11l-1.207-5.23h11.494L21.785 16zM14.77 20c-.934 0-1.693.76-1.693 1.692 0 .933.76 1.693 1.692 1.693.933 0 1.693-.76 1.693-1.693S15.702 20 14.769 20zm0 2.462a.77.77 0 010-1.539.77.77 0 010 1.539zM20.308 20c-.933 0-1.693.76-1.693 1.692 0 .933.76 1.693 1.693 1.693S22 22.625 22 21.692 21.24 20 20.308 20zm0 2.462a.77.77 0 11.001-1.54.77.77 0 01-.001 1.54z"/></svg><svg viewBox="0 0 32 31" id="icon-cart" xmlns="http://www.w3.org/2000/svg"><path d="M31.798 4.039a.923.923 0 00-.721-.347H6.509L5.822.715A.923.923 0 004.923 0h-4a.923.923 0 000 1.846H4.19l4.663 20.208c.097.419.47.715.9.715h18.494a.923.923 0 100-1.846h-17.76l-.71-3.077h18.532c.431 0 .806-.3.9-.72l2.77-12.308a.923.923 0 00-.18-.78zM27.569 16H9.35L6.937 5.538h22.987L27.57 16zM13.538 24a3.388 3.388 0 00-3.384 3.385 3.388 3.388 0 003.384 3.384 3.388 3.388 0 003.385-3.384A3.388 3.388 0 0013.538 24zm0 4.923A1.54 1.54 0 0112 27.385c0-.849.69-1.539 1.538-1.539.849 0 1.539.69 1.539 1.539a1.54 1.54 0 01-1.539 1.538zM24.615 24a3.388 3.388 0 00-3.384 3.385 3.388 3.388 0 003.384 3.384A3.388 3.388 0 0028 27.385 3.388 3.388 0 0024.615 24zm0 4.923a1.54 1.54 0 01-1.538-1.538c0-.849.69-1.539 1.538-1.539.849 0 1.539.69 1.539 1.539a1.54 1.54 0 01-1.539 1.538z"/></svg><svg viewBox="0 0 32 29" id="icon-heart" xmlns="http://www.w3.org/2000/svg"><path d="M29.665 2.777C28.087.987 25.897 0 23.5 0c-3.372 0-5.506 2.014-6.703 3.703-.311.438-.575.878-.797 1.292a12.245 12.245 0 00-.797-1.292C14.006 2.013 11.872 0 8.5 0 6.103 0 3.913.986 2.335 2.777.829 4.486 0 6.774 0 9.22c0 2.662 1.04 5.139 3.272 7.793 1.994 2.373 4.864 4.818 8.187 7.65a385.452 385.452 0 013.883 3.34l.04.035a.935.935 0 001.236 0l.04-.035c1.364-1.193 2.644-2.284 3.883-3.34 3.323-2.832 6.193-5.277 8.187-7.65C30.96 14.36 32 11.883 32 9.22c0-2.446-.83-4.734-2.335-6.443zm-10.34 20.46c-1.068.909-2.167 1.845-3.325 2.852-1.158-1.007-2.257-1.943-3.325-2.853-6.503-5.542-10.8-9.203-10.8-14.016 0-1.99.663-3.837 1.866-5.203A6.258 6.258 0 018.5 1.875c2.57 0 4.232 1.584 5.174 2.912a11.113 11.113 0 011.435 2.854.937.937 0 001.782 0c.15-.461.591-1.662 1.436-2.854.94-1.328 2.602-2.912 5.173-2.912 1.851 0 3.541.76 4.759 2.142 1.203 1.366 1.866 3.213 1.866 5.203 0 4.813-4.297 8.474-10.8 14.016z"/></svg><svg viewBox="0 0 48 48" id="icon-search" xmlns="http://www.w3.org/2000/svg"><rect width="48" height="48" rx="24"/><path d="M22.242 30.472c-4.545 0-8.242-3.695-8.242-8.236S17.697 14 22.242 14c4.545 0 8.242 3.695 8.242 8.236s-3.697 8.236-8.242 8.236zm0-14.91c-3.683 0-6.68 2.993-6.68 6.674 0 3.68 2.997 6.674 6.68 6.674s6.68-2.994 6.68-6.674-2.997-6.675-6.68-6.675zm11.53 18.21a.78.78 0 000-1.105l-3.497-3.493a.782.782 0 00-1.105 1.104l3.496 3.493a.779.779 0 001.105 0z"/></svg><svg viewBox="0 0 48 48" id="img-seach" xmlns="http://www.w3.org/2000/svg"><rect width="48" height="48" rx="24"/><path d="M22.242 30.472c-4.545 0-8.242-3.695-8.242-8.236S17.697 14 22.242 14c4.545 0 8.242 3.695 8.242 8.236s-3.697 8.236-8.242 8.236zm0-14.91c-3.683 0-6.68 2.993-6.68 6.674 0 3.68 2.997 6.674 6.68 6.674s6.68-2.994 6.68-6.674-2.997-6.675-6.68-6.675zm11.53 18.21a.78.78 0 000-1.105l-3.497-3.493a.782.782 0 00-1.105 1.104l3.496 3.493a.779.779 0 001.105 0z"/></svg><svg viewBox="0 0 33 32" id="instagram" xmlns="http://www.w3.org/2000/svg"><g clip-path="url(#gclip0_20_42)"><path d="M16.449 7.784c-4.506 0-8.154 3.677-8.154 8.21 0 4.538 3.652 8.211 8.154 8.211 4.505 0 8.153-3.677 8.153-8.21 0-4.538-3.651-8.211-8.153-8.211zm0 13.54c-2.925 0-5.293-2.385-5.293-5.33 0-2.943 2.369-5.329 5.293-5.329 2.923 0 5.292 2.386 5.292 5.33.001 2.944-2.367 5.329-5.292 5.329z"/><path d="M22.995.101c-2.924-.137-10.165-.13-13.091 0-2.572.122-4.84.747-6.669 2.588C.18 5.767.57 9.913.57 15.995c0 6.224-.344 10.274 2.665 13.305 3.068 3.088 7.246 2.684 13.214 2.684 6.122 0 8.235.004 10.4-.84 2.944-1.15 5.166-3.8 5.383-8.559.138-2.945.13-10.236 0-13.182C31.97 3.785 28.976.379 22.995.1zm4.628 27.163C25.619 29.28 22.84 29.1 16.41 29.1c-6.62 0-9.275.099-11.212-1.857-2.231-2.236-1.827-5.827-1.827-11.27C3.37 8.606 2.62 3.3 9.96 2.922c1.688-.06 2.184-.08 6.43-.08l.06.04c7.056 0 12.592-.744 12.925 6.648.075 1.686.092 2.193.092 6.462 0 6.59.124 9.279-1.845 11.27z"/><path d="M24.925 9.379a1.912 1.912 0 001.906-1.92c0-1.059-.853-1.918-1.905-1.918A1.912 1.912 0 0023.02 7.46c0 1.06.853 1.919 1.905 1.919z"/></g><defs><clipPath id="gclip0_20_42"><path transform="translate(.554)" d="M0 0h31.778v32H0z"/></clipPath></defs></svg><svg viewBox="0 0 19 32" id="left" xmlns="http://www.w3.org/2000/svg"><path d="M.385 17.015l16.013 14.593a1.35 1.35 0 001.903 0 1.335 1.335 0 000-1.894L3.253 16 18.3 2.286a1.335 1.335 0 000-1.894 1.35 1.35 0 00-1.903 0L.383 14.985c-.28.279-.4.648-.381 1.014a1.33 1.33 0 00.383 1.016z"/></svg><svg viewBox="0 0 19 32" id="right" xmlns="http://www.w3.org/2000/svg"><path d="M18.31 14.985L2.297.392a1.35 1.35 0 00-1.903 0 1.335 1.335 0 000 1.894L15.442 16 .395 29.714a1.335 1.335 0 000 1.894 1.35 1.35 0 001.904 0l16.013-14.593c.28-.279.4-.648.381-1.014a1.33 1.33 0 00-.383-1.016z"/></svg><svg viewBox="0 0 33 32" id="telegram" xmlns="http://www.w3.org/2000/svg"><g clip-path="url(#jclip0_20_46)"><path d="M13.328 20.241l-.526 7.446c.753 0 1.078-.326 1.469-.716l3.526-3.393 7.306 5.387c1.34.753 2.284.357 2.646-1.24l4.796-22.63.001-.002c.425-1.994-.716-2.774-2.022-2.285L2.334 13.676c-1.924.752-1.895 1.832-.327 2.322l7.207 2.257 16.74-10.548c.788-.526 1.505-.235.916.29L13.328 20.241z"/></g><defs><clipPath id="jclip0_20_46"><path transform="translate(.86)" d="M0 0h31.778v32H0z"/></clipPath></defs></svg><svg viewBox="0 0 25 32" id="user-link" xmlns="http://www.w3.org/2000/svg"><path d="M22.678 19.943a12.5 12.5 0 00-4.085-3.779 9.242 9.242 0 003.093-6.902C21.686 4.155 17.531 0 12.424 0S3.162 4.155 3.162 9.262a9.242 9.242 0 003.092 6.902 12.5 12.5 0 00-4.085 3.779A12.322 12.322 0 000 26.936V32h24.848v-5.064c0-2.505-.75-4.923-2.17-6.993zM5.101 9.263c0-4.039 3.285-7.324 7.323-7.324s7.323 3.285 7.323 7.323-3.285 7.323-7.323 7.323S5.1 13.3 5.1 9.262zM1.939 30.06v-3.125c0-4.109 2.38-7.794 6.101-9.516a9.205 9.205 0 004.384 1.104c1.585 0 3.078-.4 4.383-1.104 3.721 1.722 6.101 5.407 6.101 9.516v3.125H1.94z"/></svg><svg viewBox="0 0 32 32" id="youtube" xmlns="http://www.w3.org/2000/svg"><g clip-path="url(#lclip0_20_48)"><path d="M31.24 7.905l.039.262c-.384-1.372-1.42-2.43-2.738-2.816l-.028-.007c-2.478-.677-12.447-.677-12.447-.677s-9.944-.014-12.446.677A4.045 4.045 0 00.862 8.14l-.007.028c-.925 4.868-.932 10.717.041 15.93l-.04-.265c.383 1.372 1.42 2.43 2.737 2.816l.028.007c2.475.678 12.447.678 12.447.678s9.942 0 12.446-.678a4.044 4.044 0 002.76-2.795l.006-.028c.421-2.264.662-4.87.662-7.53l-.001-.295.001-.307a43.3 43.3 0 00-.703-7.795zM12.885 20.868v-9.724l8.297 4.87-8.297 4.854z"/></g><defs><clipPath id="lclip0_20_48"><path transform="translate(.164)" d="M0 0h31.778v32H0z"/></clipPath></defs></svg></svg>