<?xml version="1.0" encoding="utf-8"?><svg viewBox="0 0 48 48" xmlns="http://www.w3.org/2000/svg" xmlns:xlink="http://www.w3.org/1999/xlink"><style>:root>svg{display:none}:root>svg:target{display:block}</style><svg viewBox="0 0 32 32" id="icon-card" xmlns="http://www.w3.org/2000/svg"><rect width="32" height="32" rx="3"/><path d="M23.899 10.02a.462.462 0 00-.36-.174H11.254l-.344-1.488a.462.462 0 00-.45-.358h-2a.462.462 0 000 .923h1.633l2.332 10.104c.048.21.235.358.45.358h9.247a.461.461 0 100-.923h-8.88l-.355-1.539h9.266c.216 0 .403-.15.45-.36l1.385-6.154a.462.462 0 00-.09-.39zM21.785 16h-9.11l-1.207-5.23h11.494L21.785 16zM14.77 20c-.934 0-1.693.76-1.693 1.692 0 .933.76 1.693 1.692 1.693.933 0 1.693-.76 1.693-1.693S15.702 20 14.769 20zm0 2.462a.77.77 0 010-1.539.77.77 0 010 1.539zM20.308 20c-.933 0-1.693.76-1.693 1.692 0 .933.76 1.693 1.693 1.693S22 22.625 22 21.692 21.24 20 20.308 20zm0 2.462a.77.77 0 11.001-1.54.77.77 0 01-.001 1.54z"/></svg><svg viewBox="0 0 32 29" id="icon-heart" xmlns="http://www.w3.org/2000/svg"><path d="M29.665 2.777C28.087.987 25.897 0 23.5 0c-3.372 0-5.506 2.014-6.703 3.703-.311.438-.575.878-.797 1.292a12.245 12.245 0 00-.797-1.292C14.006 2.013 11.872 0 8.5 0 6.103 0 3.913.986 2.335 2.777.829 4.486 0 6.774 0 9.22c0 2.662 1.04 5.139 3.272 7.793 1.994 2.373 4.864 4.818 8.187 7.65a385.452 385.452 0 013.883 3.34l.04.035a.935.935 0 001.236 0l.04-.035c1.364-1.193 2.644-2.284 3.883-3.34 3.323-2.832 6.193-5.277 8.187-7.65C30.96 14.36 32 11.883 32 9.22c0-2.446-.83-4.734-2.335-6.443zm-10.34 20.46c-1.068.909-2.167 1.845-3.325 2.852-1.158-1.007-2.257-1.943-3.325-2.853-6.503-5.542-10.8-9.203-10.8-14.016 0-1.99.663-3.837 1.866-5.203A6.258 6.258 0 018.5 1.875c2.57 0 4.232 1.584 5.174 2.912a11.113 11.113 0 011.435 2.854.937.937 0 001.782 0c.15-.461.591-1.662 1.436-2.854.94-1.328 2.602-2.912 5.173-2.912 1.851 0 3.541.76 4.759 2.142 1.203 1.366 1.866 3.213 1.866 5.203 0 4.813-4.297 8.474-10.8 14.016z"/></svg><svg viewBox="0 0 48 48" id="icon-search" xmlns="http://www.w3.org/2000/svg"><rect width="48" height="48" rx="24"/><path d="M22.242 30.472c-4.545 0-8.242-3.695-8.242-8.236S17.697 14 22.242 14c4.545 0 8.242 3.695 8.242 8.236s-3.697 8.236-8.242 8.236zm0-14.91c-3.683 0-6.68 2.993-6.68 6.674 0 3.68 2.997 6.674 6.68 6.674s6.68-2.994 6.68-6.674-2.997-6.675-6.68-6.675zm11.53 18.21a.78.78 0 000-1.105l-3.497-3.493a.782.782 0 00-1.105 1.104l3.496 3.493a.779.779 0 001.105 0z"/></svg><svg viewBox="0 0 48 48" id="img-seach" xmlns="http://www.w3.org/2000/svg"><rect width="48" height="48" rx="24"/><path d="M22.242 30.472c-4.545 0-8.242-3.695-8.242-8.236S17.697 14 22.242 14c4.545 0 8.242 3.695 8.242 8.236s-3.697 8.236-8.242 8.236zm0-14.91c-3.683 0-6.68 2.993-6.68 6.674 0 3.68 2.997 6.674 6.68 6.674s6.68-2.994 6.68-6.674-2.997-6.675-6.68-6.675zm11.53 18.21a.78.78 0 000-1.105l-3.497-3.493a.782.782 0 00-1.105 1.104l3.496 3.493a.779.779 0 001.105 0z"/></svg></svg>